PathFileType	4	(X/Y/Z)	OpenSim_Sub04_EMGBaseline_Gyro.trc
DataRate	CameraRate	NumFrames	NumMarkers	Units	OrigDataRate	OrigDataStartFrame	OrigNumFrames
100	100	24	8	m	100	1	7941
Frame#	Time	torso_imu_offset_imu	pelvis_imu_offset_imu	tibia_r_imu_offset_imu	femur_r_imu_offset_imu	tibia_l_imu_offset_imu	femur_l_imu_offset_imu	toes_r_imu_offset_imu	toes_l_imu_offset_imu
				X1	Y1	Z1	X2	Y2	Z2	X3	Y3	Z3	X4	Y4	Z4	X5	Y5	Z5	X6	Y6	Z6	X7	Y7	Z7	X8		Y8	Z8	

1	0	-0.05547487	-0.08813639	0.02963138	0.02338011	-0.08346255	-0.00329742	0.12788097	0.01484447	-0.04718456	0.09998901	-0.05308144	0.07385783	0.01634771	-0.02380391	0.03458632	-0.00940682	-0.02200084	-0.07973172	-0.05372482	0.05690259	0.01452650	0.00941028	0.01705764	-0.00100804
2	0.01000000	-0.03971357	-0.09391062	0.03406199	0.02936899	-0.08570225	0.00417233	0.14157893	0.02724588	-0.05361977	0.10198036	-0.04608122	0.06642258	0.01034493	-0.01733758	0.03739209	0.00259603	-0.01777279	-0.07380811	-0.04070007	0.06119839	0.01828190	0.00235919	0.01139672	-0.00304914
3	0.02000000	-0.03044937	-0.09931956	0.02455349	0.03620208	-0.08785777	0.00813353	0.12835661	0.02195940	-0.05090368	0.11167127	-0.03992379	0.06707144	0.00932507	-0.01598348	0.03573144	0.01493833	-0.01912037	-0.07504269	-0.04496375	0.05119126	0.01559819	0.00172066	0.01693748	-0.00671456
4	0.03000000	-0.02133535	-0.10454337	0.01573575	0.04415369	-0.08720612	0.01204838	0.11797035	0.01962264	-0.05217779	0.12088406	-0.02906276	0.06387855	0.00261845	-0.01343289	0.03376139	0.02303413	-0.01871394	-0.07256592	-0.04183283	0.05318223	0.01577067	-0.00555729	0.01395073	-0.00138289
5	0.04000000	-0.01218958	-0.10394352	0.01066399	0.04837230	-0.09385714	0.01706930	0.12295493	0.01822293	-0.05402011	0.12327082	-0.01971898	0.05695257	-0.00766117	-0.00928921	0.03125882	0.03115055	-0.01526983	-0.06648316	-0.04581850	0.06835357	0.02180873	-0.00733744	0.01883374	0.00108017
6	0.05000000	-0.00450249	-0.09956517	0.00784184	0.05267135	-0.09934537	0.01999444	0.11419108	0.01547802	-0.05428268	0.11349763	-0.01336524	0.04795850	-0.01041320	-0.00752798	0.02440489	0.03487500	-0.01146672	-0.06010676	-0.05092241	0.07484500	0.03110968	-0.01062812	0.01810507	0.00120648
7	0.06000000	0.00676103	-0.09204595	0.00683506	0.04821949	-0.10026688	0.02246469	0.10331306	0.01729893	-0.05781960	0.09698156	-0.01253129	0.03780078	-0.01105647	-0.00987512	0.02084205	0.03811447	-0.00995661	-0.05278540	-0.06140960	0.06671266	0.03089117	-0.00688863	0.02282660	-0.00045846
8	0.07000000	0.00774106	-0.09813935	0.01011251	0.04211567	-0.09617883	0.02502452	0.10520401	0.01747958	-0.06116171	0.07861364	-0.01743849	0.02893640	-0.00655648	-0.00716634	0.01654095	0.03447942	-0.01636998	-0.04438889	-0.04755296	0.06570638	0.02310083	-0.00393943	0.02553395	0.00102635
9	0.08000000	0.00175146	-0.10211554	0.01206297	0.03733436	-0.10144706	0.02754375	0.10438133	0.02194623	-0.06465278	0.06338798	-0.01025503	0.02729548	0.00034989	-0.01088846	0.01513398	0.02352991	-0.01619211	-0.02681102	-0.03366746	0.05121349	0.02807831	-0.00498530	0.02288926	0.00007171
10	0.09000000	-0.00315493	-0.10569200	0.00427651	0.03140630	-0.09373836	0.02597487	0.10181222	0.02023474	-0.06030726	0.05561253	-0.00494198	0.02600207	0.01513846	-0.00346507	0.01832575	0.00308618	-0.02072314	-0.01328909	-0.02402320	0.04077956	0.01970888	-0.00645015	0.02004724	0.00250385
11	0.10000000	0.00121236	-0.11229853	-0.00046689	0.02216952	-0.08739447	0.02697190	0.09470688	0.01985105	-0.06033871	0.05032946	0.00326506	0.02699229	0.01729408	-0.00682207	0.01284392	-0.01826758	-0.02772099	-0.00463041	-0.01458691	0.03411534	0.01675272	-0.00937894	0.01924837	0.00541170
12	0.11000000	0.00115670	-0.10492780	-0.00463028	0.01563146	-0.08369823	0.02524732	0.07238184	0.01594868	-0.05909310	0.04947605	0.00518493	0.03202004	0.02394305	-0.00184805	0.01613777	-0.03532305	-0.03323504	0.00836896	-0.00222569	0.02219568	0.01297869	-0.01059440	0.01742266	0.00159620
13	0.12000000	0.02083514	-0.09415362	-0.01185667	0.00752359	-0.07545183	0.01990911	0.05781766	0.01593582	-0.06451394	0.05368781	0.00751493	0.03694948	0.02403846	-0.00034375	0.01818486	-0.04461054	-0.03289099	0.01114169	0.00702430	0.01561082	0.00657466	-0.01015173	0.01525114	0.00479076
14	0.13000000	0.03825267	-0.07575880	-0.01751097	-0.00241074	-0.07039917	0.01417442	0.04643586	0.01525643	-0.06352776	0.05042798	0.00874052	0.04269546	0.01892544	-0.00350969	0.02094858	-0.04065874	-0.03484403	0.01365394	0.01457113	0.01536221	0.00564532	-0.01126136	0.01385074	0.00329440
15	0.14000000	0.04121602	-0.06115105	-0.02511986	-0.00490133	-0.06756691	0.00967089	0.02695720	0.01351520	-0.06346769	0.03506451	0.00495785	0.04459242	0.01760654	-0.00427530	0.02659662	-0.02539306	-0.03476923	0.01160636	0.00918768	0.01074395	0.00066401	-0.01117291	0.01464246	0.00320989
16	0.15000000	0.03523329	-0.04913015	-0.03475113	-0.01172666	-0.06567899	0.00956340	0.01297846	0.01495135	-0.06076494	0.02415407	0.00860484	0.03584435	0.01786693	0.00218260	0.03482746	-0.01614783	-0.02598841	0.01214194	0.00841370	0.00967774	0.00005835	-0.00959541	0.01095686	0.00595531
17	0.16000000	0.02128493	-0.04520358	-0.03480218	-0.01244892	-0.06470721	0.00631363	-0.00431065	0.00490246	-0.05940654	0.00721235	0.00608590	0.03607380	0.00849069	-0.00095672	0.03515466	-0.01150579	-0.02213758	0.00955336	0.01497044	0.00826694	0.00113490	-0.01728589	0.00874348	0.00627988
18	0.17000000	0.00778980	-0.04264324	-0.03365532	-0.00809553	-0.06875916	-0.00238914	-0.01649675	0.00579064	-0.06361153	-0.00218465	0.01176330	0.03619167	0.00868445	-0.00301265	0.04276899	-0.01376511	-0.02163455	0.00305964	0.00692919	0.00138898	-0.00465321	-0.01907555	0.01594405	0.00648280
19	0.18000000	-0.00572571	-0.04276984	-0.03027062	-0.01065005	-0.06843828	-0.00255329	-0.02675628	0.00643051	-0.05716490	-0.00843980	0.01312918	0.02641493	0.00540721	-0.00018262	0.04831519	-0.01988640	-0.02317172	-0.00653583	0.01204461	-0.00384129	-0.01059928	-0.01529511	0.00765829	0.00401347
20	0.19000000	-0.02577125	-0.03977793	-0.02023931	-0.00742584	-0.06209161	-0.00438708	-0.03267242	0.00383698	-0.05525353	-0.01148332	0.01693625	0.02620635	-0.00274082	-0.00186440	0.05441729	-0.03726259	-0.02830701	-0.00711542	0.01870801	-0.00707131	-0.00648091	-0.01988785	0.00859109	0.00530407
21	0.20000000	-0.03907765	-0.04139428	-0.01448417	-0.00913742	-0.06144635	-0.00843132	-0.03913214	0.00655644	-0.05249919	-0.02072878	0.02104890	0.02473437	0.00066353	-0.00142360	0.05692211	-0.04695182	-0.02654483	-0.01325886	0.02059615	-0.00601638	-0.00734982	-0.02077136	0.00991995	0.00566516
22	0.21000000	-0.04190874	-0.03885328	-0.00732077	-0.01383606	-0.05595086	-0.01287048	-0.04309455	0.01000629	-0.04991188	-0.03725590	0.02785228	0.02531890	0.00522551	-0.00290493	0.05785593	-0.05916089	-0.02367862	-0.01647279	0.02065075	-0.00773946	-0.00933481	-0.01974704	0.00924519	0.00757958
23	0.22000000	-0.03414644	-0.03463534	-0.00045416	-0.02375923	-0.05184768	-0.01329033	-0.04237763	0.01132440	-0.05081745	-0.04617676	0.03168596	0.02003190	0.01094927	-0.00040539	0.06247708	-0.06412556	-0.01591950	-0.01733044	0.02573105	-0.00531113	-0.00998709	-0.02012348	0.00971798	0.00798325
24	0.23000000	-0.02457237	-0.02932999	0.00703747	-0.02858702	-0.05146920	-0.01593766	-0.04072271	0.01314994	-0.04166959	-0.04752877	0.03088841	0.02337842	0.01589574	0.00065290	0.06757245	-0.06142081	-0.00842978	-0.00714027	0.01916173	-0.00509854	-0.00660013	-0.01929653	0.00746799	0.00158348
